name C:\Users\u0101727\Documents\MyRepositories\upper-imu-dc\Results\main_tracking\Case_10\kinematics.mot
datacolumns 10
datarows 33
range 0.50000000 0.82000000
endheader 
time	clav_prot	clav_elev	scapula_abduction	scapula_elevation	scapula_upward_rot	scapula_winging	plane_elv	shoulder_elv	axial_rot	
          0.50000000	        -24.23775765	         -3.90027380	        -14.47489395	         -4.20637969	         14.47155137	          4.92346745	        -24.95811418	         12.30672341	         39.56662034	
          0.51000000	        -24.17400162	         -3.92366273	        -14.53913571	         -4.20207991	         14.38785651	          4.94684816	        -24.74228003	         12.25181152	         40.03705295	
          0.52000000	        -24.17596702	         -3.92708603	        -14.56498651	         -4.19466824	         14.34848920	          4.95788468	        -24.49867504	         12.21419441	         40.49979842	
          0.53000000	        -24.09338951	         -3.93514515	        -14.42918982	         -4.19199848	         14.33435320	          4.96480415	        -24.21880367	         12.19309981	         40.93347280	
          0.54000000	        -23.94058668	         -3.95120736	        -14.15908595	         -4.19595793	         14.33916501	          4.96958668	        -23.90081349	         12.17956815	         41.30114590	
          0.55000000	        -23.70909942	         -3.97755411	        -13.74150870	         -4.20684040	         14.35911739	          4.97287496	        -23.54155620	         12.16641262	         41.55864596	
          0.56000000	        -23.61715751	         -3.99408502	        -13.57152709	         -4.21688118	         14.37113933	          4.97464246	        -23.09989976	         12.16080289	         41.66381515	
          0.57000000	        -23.74955875	         -3.98985084	        -13.82137808	         -4.21294656	         14.33662581	          4.98270557	        -22.51537546	         12.18790027	         41.57863777	
          0.58000000	        -23.87100187	         -3.98451760	        -14.06735189	         -4.20104506	         14.27704320	          4.99619592	        -21.82719033	         12.23552915	         41.27987992	
          0.59000000	        -23.94895501	         -3.98607947	        -14.23618326	         -4.19184145	         14.21797283	          5.01148843	        -21.07490572	         12.29318209	         40.75237094	
          0.60000000	        -23.97529850	         -3.99994609	        -14.30951558	         -4.19027787	         14.16455708	          5.02939247	        -20.26190526	         12.36433975	         39.98574934	
          0.61000000	        -23.96788029	         -4.02690536	        -14.31951061	         -4.19737626	         14.11411040	          5.05091647	        -19.38089378	         12.45594894	         38.97326295	
          0.62000000	        -23.94512055	         -4.06597146	        -14.30030456	         -4.21260008	         14.06300264	          5.07660021	        -18.42540723	         12.57429132	         37.70854014	
          0.63000000	        -23.91967410	         -4.11570810	        -14.27524391	         -4.23513455	         14.00925582	          5.10644421	        -17.39336846	         12.72354932	         36.18748730	
          0.64000000	        -23.89792119	         -4.17455217	        -14.25574160	         -4.26418521	         13.95286588	          5.13995822	        -16.28668885	         12.90529331	         34.41380803	
          0.65000000	        -23.88166956	         -4.24070516	        -14.24456408	         -4.29885816	         13.89524465	          5.17624013	        -15.11014779	         13.11837001	         32.40623659	
          0.66000000	        -23.87027268	         -4.31199648	        -14.23990269	         -4.33801703	         13.83855824	          5.21407336	        -13.87058901	         13.35910856	         30.20362015	
          0.67000000	        -23.86201152	         -4.38594227	        -14.23801268	         -4.38029205	         13.78525736	          5.25205172	        -12.57642671	         13.62188207	         27.86474506	
          0.68000000	        -23.85479659	         -4.46001117	        -14.23454015	         -4.42424374	         13.73775761	          5.28874262	        -11.23706234	         13.90002759	         25.46215724	
          0.69000000	        -23.84664081	         -4.53197698	        -14.22539777	         -4.46859432	         13.69817870	          5.32287023	         -9.86210474	         14.18693653	         23.07207846	
          0.70000000	        -23.83603847	         -4.60022434	        -14.20745765	         -4.51243300	         13.66814214	          5.35347336	         -8.46061384	         14.47699282	         20.76405611	
          0.71000000	        -23.82210955	         -4.66391737	        -14.17880980	         -4.55533130	         13.64868220	          5.37999200	         -7.04057672	         14.76609187	         18.59347445	
          0.72000000	        -23.80447515	         -4.72299737	        -14.13853066	         -4.59734275	         13.64027927	          5.40226586	         -5.60857433	         15.05168964	         16.59821944	
          0.73000000	        -23.78301742	         -4.77802278	        -14.08625209	         -4.63889227	         13.64296277	          5.42045959	         -4.16945330	         15.33252604	         14.79901006	
          0.74000000	        -23.75767008	         -4.82989798	        -14.02180355	         -4.68058542	         13.65642609	          5.43494407	         -2.72589817	         15.60822612	         13.20200577	
          0.75000000	        -23.72835888	         -4.87955308	        -13.94514254	         -4.72298066	         13.68010882	          5.44616589	         -1.27793512	         15.87895130	         11.80220622	
          0.76000000	        -23.69518200	         -4.92763819	        -13.85672272	         -4.76637453	         13.71322848	          5.45453340	          0.17746762	         16.14519702	         10.58661503	
          0.77000000	        -23.65875980	         -4.97429190	        -13.75814153	         -4.81065101	         13.75479982	          5.46033238	          1.64642000	         16.40772757	          9.53681616	
          0.78000000	        -23.62056602	         -5.01903066	        -13.65269157	         -4.85523751	         13.80371226	          5.46367116	          3.13749918	         16.66757085	          8.63104898	
          0.79000000	        -23.58302736	         -5.06079592	        -13.54541026	         -4.89919561	         13.85891681	          5.46445432	          4.66042264	         16.92599846	          7.84593475	
          0.80000000	        -23.54915383	         -5.09819386	        -13.44222130	         -4.94145362	         13.91970358	          5.46239741	          6.22412133	         17.18447665	          7.15791822	
          0.81000000	        -23.52166378	         -5.12991880	        -13.34818691	         -4.98113713	         13.98593518	          5.45710823	          7.83458404	         17.44466799	          6.54439683	
          0.82000000	        -23.50203211	         -5.15524694	        -13.26574590	         -5.01788928	         14.05805004	          5.44824455	          9.49307537	         17.70858557	          5.98449278	
